# xmcd CD database file
#
# Track frame offsets:
#	150
#	28563
#	54550
#	77714
#	92188
#	124080
#	146244
#
# Disc length: 2916 seconds
#
# Revision: 0
# Processed by: cddbd v1.5.2PL0 Copyright (c) Steve Scherf et al.
# Submitted via: CDex 1.51
#
DISCID=5c0b6207
DTITLE=Chikago - Diverse
DYEAR=1900
DGENRE=Jazz
TTITLE0=Beginnings
TTITLE1=Purple Song
TTITLE2=25 Or 6 To 4
TTITLE3=Does Anybody Know
TTITLE4=I'm A Man
TTITLE5=Questions 67 and 68
TTITLE6=Liberation
EXTD=
EXTT0=
EXTT1=
EXTT2=
EXTT3=
EXTT4=
EXTT5=
EXTT6=
PLAYORDER=
